# Blender v2.93.1 OBJ File: ''
# www.blender.org
o Star
v 0.277692 0.165394 -0.976074
v 0.285462 0.174458 -0.464887
v 0.415870 -0.424000 -1.283826
v 0.129912 0.743582 -1.300184
v 0.167389 0.643954 -0.629469
v 0.058919 1.124654 -0.162189
v 0.220258 0.473686 -0.055417
v 0.300999 0.192586 0.557488
v 0.363236 -0.110104 -0.047238
v 0.521608 -0.764535 -0.135722
v 0.398733 -0.300640 -0.616235
v -0.218898 0.043907 -0.966372
v -0.080721 -0.545486 -1.274125
v -0.366678 0.622096 -1.290483
v -0.329202 0.522468 -0.619768
v -0.437672 1.003168 -0.152488
v -0.276333 0.352200 -0.045716
v -0.195591 0.071100 0.567189
v -0.133354 -0.231591 -0.037536
v 0.025017 -0.886020 -0.126021
v -0.097857 -0.422126 -0.606535
v -0.211129 0.052971 -0.455186
vn 0.9712 0.2376 -0.0190
vn -0.1241 0.4363 -0.8912
vn 0.0972 -0.4676 -0.8786
vn -0.2319 0.9602 0.1556
vn -0.1769 0.6652 -0.7254
vn -0.0192 0.1572 0.9874
vn -0.2066 0.8788 0.4302
vn 0.2200 -0.8631 0.4546
vn 0.0492 -0.1221 0.9913
vn 0.1551 -0.6906 -0.7064
vn 0.2370 -0.9542 0.1824
vn -0.9712 -0.2376 0.0190
vn -0.1241 0.4362 -0.8912
vn 0.1552 -0.6906 -0.7064
s off
f 1//1 2//1 3//1
f 2//1 1//1 4//1
f 2//1 4//1 5//1
f 2//1 5//1 6//1
f 2//1 6//1 7//1
f 2//1 7//1 8//1
f 2//1 8//1 9//1
f 2//1 9//1 10//1
f 2//1 10//1 11//1
f 2//1 11//1 3//1
f 12//2 3//2 13//2
f 1//3 14//3 4//3
f 4//4 15//4 5//4
f 15//5 6//5 5//5
f 6//6 17//6 7//6
f 17//7 8//7 7//7
f 8//8 19//8 9//8
f 9//9 20//9 10//9
f 20//10 11//10 10//10
f 21//11 3//11 11//11
f 22//12 12//12 13//12
f 12//12 22//12 14//12
f 14//12 22//12 15//12
f 15//12 22//12 16//12
f 16//12 22//12 17//12
f 17//12 22//12 18//12
f 18//12 22//12 19//12
f 19//12 22//12 20//12
f 20//12 22//12 21//12
f 21//12 22//12 13//12
f 12//13 1//13 3//13
f 1//3 12//3 14//3
f 4//4 14//4 15//4
f 15//5 16//5 6//5
f 6//6 16//6 17//6
f 17//7 18//7 8//7
f 8//8 18//8 19//8
f 9//9 19//9 20//9
f 20//14 21//14 11//14
f 21//11 13//11 3//11
