# Blender v2.79 (sub 0) OBJ File: ''
# www.blender.org
mtllib clam.mtl
o Mesh_0655.rip
v 0.054752 0.235822 -0.143877
v 0.050970 0.243698 -0.136691
v 0.044518 0.229284 -0.118473
v 0.098954 0.271746 0.031494
v 0.084809 0.253686 0.047813
v 0.095014 0.247879 0.032588
v 0.002558 0.059560 0.114267
v 0.064019 0.074394 0.086647
v -0.056100 0.077887 0.092625
v 0.041760 0.127058 -0.140185
v -0.020012 0.127535 -0.139262
v -0.071750 0.128261 -0.013783
v -0.019037 0.169446 -0.063261
v -0.025836 0.258839 -0.034760
v -0.005144 0.260663 -0.060080
v 0.026347 0.170203 -0.066146
v 0.076286 0.113124 -0.034024
v 0.028410 0.115728 -0.088197
v 0.002337 0.122241 -0.183230
v -0.084441 0.106284 -0.194854
v -0.063106 0.117288 -0.157279
v 0.077795 0.045969 -0.140723
v 0.068077 0.117126 -0.169598
v 0.115500 0.225219 0.122264
v 0.140863 0.225133 0.107101
v 0.148899 0.260246 0.037004
v 0.007785 0.117275 -0.181648
v -0.088480 0.121615 -0.188859
v -0.057658 0.112322 -0.155696
v -0.062012 0.189971 -0.131285
v -0.089383 0.183108 -0.132665
v -0.122391 0.130494 -0.090663
v 0.106280 0.197401 -0.137978
v 0.141473 0.130558 -0.108480
v 0.073525 0.112160 -0.168016
v 0.174744 0.184377 -0.023728
v 0.046207 0.234727 -0.151273
v 0.037145 0.241926 -0.148658
v 0.040089 0.247471 -0.139646
v -0.082842 0.271647 -0.061512
v -0.083058 0.273388 -0.039604
v -0.074378 0.274005 -0.050559
v -0.096753 0.269574 -0.057326
v -0.096887 0.270650 -0.043786
v -0.099935 0.243597 -0.037123
v -0.070201 0.242222 -0.029573
v -0.061523 0.245578 -0.053041
v 0.082516 0.279802 0.037112
v 0.092192 0.274296 0.022677
v 0.082033 0.279274 0.026149
v 0.092974 0.275149 0.040415
v 0.083474 0.252230 0.017542
v 0.092431 0.127128 -0.040671
v 0.034924 0.263495 -0.035721
v 0.031602 0.164018 -0.000209
v 0.043138 0.167912 -0.041250
v 0.026574 0.269942 -0.005361
v 0.003667 0.159747 0.014309
v -0.070932 0.112874 -0.022693
v -0.023046 0.162399 0.000207
v -0.035860 0.165995 -0.037711
v -0.047904 0.088081 0.055004
v 0.002289 0.112849 -0.232689
v 0.089412 0.106070 -0.211180
v -0.056047 0.047003 -0.138724
v -0.053626 0.000000 -0.038949
v 0.014352 0.280958 -0.065214
v 0.016915 0.285203 0.062823
v 0.100037 0.237660 -0.053358
v -0.073291 0.238939 -0.052043
v -0.058996 0.240407 0.044713
v 0.007715 0.128896 -0.231978
v 0.104347 0.121378 -0.206967
v 0.040415 0.236396 0.179998
v 0.086237 0.229601 0.113607
v 0.033669 0.223210 0.158110
v 0.093747 0.243057 0.132599
v -0.001730 0.234002 0.180038
v 0.003065 0.221692 0.159776
v -0.043525 0.233739 0.127185
v 0.093129 0.249275 0.056257
v -0.043632 0.221239 0.110110
v 0.012915 0.219324 -0.153502
v 0.083421 0.191103 -0.132637
v 0.036390 0.213975 -0.143358
v 0.050971 0.215844 -0.130736
v -0.021723 0.115931 -0.082911
v 0.012836 0.260785 -0.061276
v 0.109180 0.057220 0.105171
v 0.077287 0.002730 0.052155
v 0.002339 0.074594 0.134130
v 0.143305 0.053782 0.032267
v 0.089250 -0.001104 -0.065165
v 0.145278 0.107009 -0.057227
v -0.114468 0.257164 0.051386
v -0.126881 0.242907 -0.054991
v -0.134795 0.200370 0.055391
v -0.144123 0.171463 -0.039609
v -0.099530 0.206978 0.112695
v -0.074657 0.211520 0.116855
v 0.020925 0.226260 -0.138895
v 0.025949 0.235722 -0.123515
v 0.094256 0.042185 0.089412
v 0.123544 0.040311 0.031145
v 0.125339 0.088180 -0.050086
v -0.057494 0.008104 0.057485
v -0.135534 0.053827 0.048826
v -0.103375 0.053977 0.107857
v -0.143083 0.098126 -0.019835
v 0.145740 0.253338 -0.057914
v 0.172426 0.215216 0.033584
v -0.068393 0.115559 -0.167246
v -0.137881 0.140920 -0.101065
v -0.162798 0.183649 -0.043334
v 0.066137 0.260726 0.023467
v 0.066962 0.261626 0.042176
v -0.099708 0.241762 -0.057500
v -0.070836 0.227053 -0.072301
v -0.071651 0.112880 -0.172329
v -0.173907 0.089327 -0.025742
v -0.156534 0.038496 0.053367
v -0.116182 0.039615 0.129713
v 0.002154 0.061661 0.159123
v 0.049434 0.085894 0.053045
v 0.000539 0.078250 0.078848
v -0.015040 0.264784 -0.006493
v 0.006099 0.269054 -0.000156
v -0.152986 0.214596 0.059952
v -0.100386 0.217895 0.137013
v -0.072091 0.223543 0.140489
v 0.058978 0.096863 -0.145900
v -0.053611 0.097002 -0.135327
v -0.122200 0.080557 -0.017994
v -0.115774 0.043078 0.041053
v -0.088173 0.041888 0.091718
v 0.162075 0.094865 -0.070955
v 0.076338 0.112844 -0.185700
v 0.164304 0.035895 0.026771
v 0.121752 0.043246 0.126706
v 0.114112 0.239864 0.144985
v 0.155109 0.236620 0.122179
v 0.189071 0.231941 0.041265
v 0.192533 0.197484 -0.027734
v 0.155611 0.140991 -0.120883
v 0.082678 0.114898 -0.179584
vt 0.637800 0.160000
vt 0.677200 0.160000
vt 0.677200 0.088900
vt 0.465600 0.160000
vt 0.508500 0.088900
vt 0.465600 0.088900
vt 0.179000 0.940200
vt 0.263500 0.898700
vt 0.120100 0.896500
vt 0.258200 0.594900
vt 0.174800 0.593300
vt 0.092100 0.748900
vt 0.489700 0.840400
vt 0.461200 0.733000
vt 0.411300 0.745800
vt 0.489700 0.840400
vt 0.559100 0.923600
vt 0.462100 0.930400
vt 0.402300 0.573800
vt 0.436700 0.704000
vt 0.383600 0.661800
vt 0.439500 0.416500
vt 0.533100 0.413000
vt 0.550800 0.325000
vt 0.736300 0.840900
vt 0.683500 0.832700
vt 0.651700 0.711100
vt 0.402300 0.573800
vt 0.436700 0.704000
vt 0.383600 0.661800
vt 0.763200 0.348600
vt 0.777300 0.197100
vt 0.703900 0.327200
vt 0.659500 0.174700
vt 0.567500 0.371600
vt 0.703900 0.327200
vt 0.567500 0.371600
vt 0.659500 0.174700
vt 0.504300 0.536400
vt 0.595400 0.160000
vt 0.573700 0.228200
vt 0.605700 0.204200
vt 0.555600 0.160000
vt 0.543400 0.202800
vt 0.555600 0.160000
vt 0.605700 0.204200
vt 0.595400 0.160000
vt 0.543400 0.202800
vt 0.573700 0.228200
vt 0.677200 0.088900
vt 0.637800 0.160000
vt 0.677200 0.160000
vt 0.637900 0.088900
vt 0.595400 0.088900
vt 0.555600 0.160000
vt 0.605700 0.204200
vt 0.595400 0.160000
vt 0.543400 0.202800
vt 0.573700 0.228200
vt 0.637800 0.160000
vt 0.637900 0.088900
vt 0.677200 0.160000
vt 0.677200 0.088900
vt 0.316200 0.729500
vt 0.461200 0.733000
vt 0.585400 0.811300
vt 0.526500 0.835500
vt 0.500700 0.709300
vt 0.620900 0.787400
vt 0.559100 0.923600
vt 0.585400 0.811300
vt 0.526500 0.835500
vt 0.667700 0.927800
vt 0.470300 0.573700
vt 0.383600 0.661800
vt 0.436700 0.704000
vt 0.424500 0.249400
vt 0.301100 0.224300
vt 0.523800 0.226600
vt 0.947300 0.480000
vt 0.952700 0.733800
vt 0.739200 0.505700
vt 0.739200 0.505700
vt 0.769600 0.697900
vt 0.470300 0.573700
vt 0.383600 0.661800
vt 0.436700 0.704000
vt 0.938200 0.995900
vt 0.829200 0.948300
vt 0.938200 0.948300
vt 0.829200 0.995900
vt 0.766300 0.948300
vt 0.938200 0.995900
vt 0.938200 0.948300
vt 0.829200 0.995900
vt 0.995700 0.995900
vt 0.995700 0.948300
vt 0.769600 0.697900
vt 0.812200 0.862600
vt 0.801700 0.827600
vt 0.923300 0.926000
vt 0.988300 0.922700
vt 0.934900 0.130100
vt 0.944200 0.304900
vt 0.763200 0.348600
vt 0.595400 0.088900
vt 0.637900 0.088900
vt 0.462100 0.930400
vt 0.410000 0.857400
vt 0.406500 0.935800
vt 0.387200 0.748700
vt 0.094400 0.430900
vt 0.178000 0.401200
vt 0.067200 0.299900
vt 0.212700 0.527300
vt 0.331700 0.407000
vt 0.334100 0.551100
vt 0.651700 0.711100
vt 0.625500 0.500200
vt 0.554200 0.684500
vt 0.522500 0.487900
vt 0.683500 0.832700
vt 0.736300 0.840900
vt 0.555600 0.088900
vt 0.508500 0.088900
vt 0.508500 0.160000
vt 0.465600 0.088900
vt 0.465600 0.160000
vt 0.312900 0.932500
vt 0.367200 0.835200
vt 0.378800 0.719000
vt 0.170800 0.219000
vt 0.182500 0.100200
vt 0.098700 0.170400
vt 0.279200 0.074000
vt 0.472000 0.190700
vt 0.625500 0.500200
vt 0.554200 0.684500
vt 0.777300 0.197100
vt 0.012200 0.995900
vt 0.209300 0.948300
vt 0.012200 0.948300
vt 0.209300 0.995900
vt 0.362500 0.948300
vt 0.362500 0.995900
vt 0.539000 0.948300
vt 0.595400 0.088900
vt 0.555600 0.088900
vt 0.508500 0.160000
vt 0.465600 0.160000
vt 0.508500 0.088900
vt 0.465600 0.088900
vt 0.508500 0.160000
vt 0.555600 0.088900
vt 0.012200 0.995900
vt 0.225500 0.948300
vt 0.012200 0.948300
vt 0.225500 0.995900
vt 0.350900 0.948300
vt 0.350900 0.995900
vt 0.476200 0.948300
vt 0.476200 0.995900
vt 0.633300 0.995900
vt 0.509200 0.460800
vt 0.411300 0.745800
vt 0.667700 0.927800
vt 0.736000 0.893400
vt 0.500700 0.709300
vt 0.518600 0.686800
vt 0.539000 0.995900
vt 0.717900 0.995900
vt 0.717900 0.948300
vt 0.766300 0.995900
vt 0.766300 0.948300
vt 0.829200 0.948300
vt 0.290400 0.557400
vt 0.122100 0.562700
vt 0.007400 0.736900
vt 0.010500 0.822300
vt 0.051400 0.924000
vt 0.012200 0.948300
vt 0.225500 0.995900
vt 0.012200 0.995900
vt 0.225500 0.948300
vt 0.350900 0.995900
vt 0.350900 0.948300
vt 0.476200 0.995900
vt 0.476200 0.948300
vt 0.633500 0.948300
vt 0.766300 0.995900
vt 0.717900 0.995900
vt 0.717900 0.948300
vt 0.539000 0.995900
vt 0.539000 0.948300
vt 0.362500 0.995900
vt 0.362500 0.948300
vt 0.209300 0.995900
vt 0.209300 0.948300
vt 0.012200 0.995900
vt 0.012200 0.948300
vn 0.9579 -0.0422 -0.2839
vn 0.5855 0.7902 -0.1810
vn 0.6033 0.5075 0.6152
vn 0.9933 0.1067 -0.0440
vn 0.4065 0.1557 0.9003
vn 0.9860 -0.1641 -0.0300
vn 0.0302 0.5112 0.8589
vn 0.3373 0.7718 0.5390
vn -0.3510 0.7131 0.6069
vn 0.3336 0.8273 -0.4520
vn -0.4672 0.8607 -0.2023
vn -0.2959 0.9285 0.2243
vn -0.5324 0.2117 -0.8196
vn -0.9827 0.1221 -0.1390
vn -0.4578 0.1005 -0.8833
vn 0.4630 0.2761 -0.8423
vn 0.8754 0.4667 -0.1262
vn 0.3504 0.3628 -0.8635
vn -0.0002 0.8852 0.4652
vn -0.1527 0.9697 -0.1908
vn -0.0731 0.9579 0.2775
vn -0.3284 0.6124 0.7191
vn 0.0048 0.9828 0.1848
vn -0.0003 0.8852 0.4652
vn 0.0800 0.9849 -0.1538
vn -0.0397 0.9971 -0.0655
vn 0.2862 0.9407 0.1823
vn -0.1025 0.8825 -0.4591
vn 0.0261 0.9713 0.2365
vn -0.0323 0.8424 -0.5378
vn -0.2281 0.5660 -0.7922
vn -0.2397 0.7028 -0.6698
vn -0.6013 0.2747 -0.7503
vn -0.3985 0.1636 -0.9025
vn -0.8019 0.0266 -0.5968
vn 0.4481 0.4239 -0.7871
vn 0.7667 0.1258 -0.6296
vn 0.2074 0.3011 -0.9308
vn 0.8965 0.2280 -0.3800
vn 0.3439 0.2551 -0.9037
vn -0.3333 0.5595 -0.7588
vn -0.0500 0.9820 0.1824
vn 0.1933 0.7507 -0.6317
vn 0.0992 0.8444 0.5265
vn 0.6127 0.7890 -0.0441
vn -0.5642 0.6167 -0.5489
vn -0.8322 0.4874 0.2645
vn -0.6273 0.2335 0.7429
vn 0.3672 0.4188 0.8305
vn 0.8930 0.4407 -0.0915
vn -0.0473 0.8792 0.4740
vn 0.4836 0.7452 -0.4593
vn -0.3943 0.7543 -0.5250
vn 0.5223 0.7096 0.4729
vn 0.3468 0.0804 -0.9345
vn 0.5044 0.8445 0.1802
vn 0.9764 0.1043 -0.1890
vn 0.7899 0.3212 0.5224
vn 0.9420 0.3071 -0.1351
vn 0.6159 0.0910 0.7825
vn -0.0038 0.3898 0.9209
vn -0.8594 0.5005 -0.1045
vn -0.7557 0.3705 0.5401
vn -0.9378 0.3311 -0.1044
vn -0.4531 0.6157 0.6447
vn 0.0284 0.9814 -0.1898
vn 0.1984 0.9786 0.0539
vn 0.1239 0.9729 -0.1951
vn 0.4443 0.5775 0.6849
vn 0.3350 0.9177 0.2137
vn 0.2429 0.8753 0.4182
vn 0.1094 0.9219 -0.3716
vn -0.0464 0.9631 0.2652
vn 0.0784 0.9709 -0.2262
vn -0.2140 0.9403 -0.2648
vn -0.1503 0.9591 0.2400
vn -0.0168 0.8138 -0.5809
vn 0.0232 0.9729 0.2300
vn -0.0834 0.9424 -0.3241
vn 0.0133 0.9706 0.2403
vn -0.2508 0.8536 -0.4566
vn 0.0413 0.9980 -0.0488
vn -0.0567 0.9973 0.0466
vn 0.0930 0.8350 -0.5423
vn 0.2183 0.8561 -0.4684
vn 0.0809 0.9788 -0.1880
vn 0.0517 0.8610 -0.5059
vn 0.1276 0.9755 0.1790
vn -0.2610 0.9652 0.0134
vn -0.0167 0.8138 -0.5809
vn -0.1009 0.6258 -0.7734
vn 0.0784 0.6744 -0.7342
vn -0.0247 0.7002 -0.7135
vn 0.1237 -0.4042 -0.9063
vn 0.9520 -0.2723 -0.1400
vn -0.3266 0.3484 -0.8786
vn 0.2235 0.0860 -0.9709
vn 0.0852 0.9963 0.0139
vn -0.2377 0.9074 -0.3467
vn -0.0157 0.9610 -0.2761
vn -0.5058 0.8626 0.0101
vn -0.0666 0.9849 0.1598
vn -0.5251 0.8170 0.2382
vn -0.8553 0.3254 0.4032
vn -0.7446 0.6644 -0.0636
vn -0.2879 0.9088 0.3021
vn -0.5983 0.7096 -0.3721
vn -0.9319 0.3094 0.1891
vn -0.9284 0.1694 -0.3307
vn -0.4091 0.9086 0.0841
vn -0.2079 0.9781 0.0047
vn -0.2263 0.9737 -0.0251
vn -0.6896 0.3045 -0.6570
vn -0.5478 0.8276 0.1225
vn 0.5292 0.5521 0.6442
vn 0.7150 0.6022 0.3551
vn 0.7731 0.6126 -0.1646
vn 0.2960 0.7179 -0.6301
vn 0.2319 0.8982 -0.3733
vn 0.1021 0.9539 0.2822
vn -0.2057 0.9746 0.0890
vn 0.2945 0.8959 0.3326
vn 0.6146 0.2585 0.7453
vn 0.5817 0.6550 0.4822
vn 0.5550 0.7134 -0.4278
vn 0.9098 0.4133 0.0370
vn 0.4481 0.4240 -0.7871
vn 0.3981 0.8346 -0.3806
vn 0.0775 0.8753 -0.4774
vn 0.3792 0.9211 0.0877
vn 0.4873 0.8725 -0.0368
vn -0.0323 0.8424 -0.5379
vn 0.5816 0.7995 -0.1505
vn 0.5953 0.7461 -0.2981
vn 0.5563 0.7748 -0.3002
vn 0.5117 0.7932 -0.3300
vn -0.5772 0.5781 -0.5767
vn -0.6536 0.6617 0.3674
vn -0.9277 0.1013 -0.3592
vn -0.0250 0.2106 -0.9773
vn -0.3101 0.9492 -0.0534
vn 0.1289 0.9597 0.2499
vn -0.0730 0.9579 0.2776
vn -0.3500 0.8605 0.3701
vn -0.4832 0.7945 0.3679
vn -0.3866 0.8583 0.3375
vn -0.0085 0.8948 0.4463
vn -0.5298 0.2558 0.8086
vn 0.4936 0.5643 0.6618
vn 0.0298 0.6198 0.7842
vn -0.6143 0.1156 0.7806
vn -0.0361 0.1319 0.9906
vn 0.5271 0.7812 -0.3345
vn 0.2803 0.8727 -0.3998
vn -0.0097 0.9861 -0.1658
vn -0.2291 0.8820 -0.4118
vn 0.3743 0.3740 -0.8485
vn -0.3079 0.2855 -0.9076
vn -0.3078 0.2855 -0.9076
vn -0.5488 0.5338 -0.6434
vn 0.3942 0.3586 -0.8462
vn -0.6913 0.7218 -0.0348
vn -0.4299 0.7466 -0.5078
vn -0.6715 0.6136 0.4155
vn -0.5261 0.4506 0.7212
vn 0.5222 0.8528 0.0114
vn 0.3167 0.9444 -0.0887
vn 0.6403 0.7460 0.1830
vn 0.6817 0.6547 0.3265
vn 0.3755 0.8979 0.2298
vn 0.4952 0.8171 0.2952
vn 0.1600 0.9805 0.1137
vn 0.0935 0.8394 -0.5354
vn -0.3143 0.8587 -0.4047
vn -0.5296 0.7822 -0.3282
vn -0.2854 0.9453 -0.1581
vn -0.5787 0.7216 -0.3801
vn -0.5910 0.7323 -0.3384
vn -0.6345 0.7250 -0.2679
vn -0.6005 0.7965 -0.0706
vn -0.4888 0.8723 0.0089
vn -0.3725 0.9221 0.1050
vn -0.0834 0.9424 -0.3240
vn -0.0337 0.9535 -0.2994
vn 0.9098 0.4134 0.0370
vn 0.3981 0.8347 -0.3805
vn 0.3753 0.9154 0.1454
usemtl clam
s 1
f 1/1/1 2/2/2 3/3/3
f 4/4/4 5/5/5 6/6/6
f 7/7/7 8/8/8 9/9/9
f 10/10/10 11/11/11 12/12/12
f 13/13/13 14/14/14 15/15/15
f 16/16/16 17/17/17 18/18/18
f 19/19/19 20/20/20 21/21/21
f 22/22/22 23/23/23 19/24/24
f 24/25/25 25/26/26 26/27/27
f 27/28/28 28/29/29 29/30/30
f 30/31/31 29/32/32 31/33/33
f 31/33/33 29/34/34 32/35/35
f 33/36/36 34/37/37 35/38/38
f 36/39/39 34/37/37 33/36/36
f 37/40/40 2/41/2 1/42/1
f 38/43/41 2/41/2 37/40/40
f 38/43/41 39/44/42 2/41/2
f 40/45/43 41/46/44 42/47/45
f 43/48/46 41/46/44 40/45/43
f 43/48/46 44/49/47 41/46/44
f 45/50/48 41/51/44 44/52/47
f 46/53/49 41/51/44 45/50/48
f 46/53/49 47/54/50 41/51/44
f 48/55/51 49/56/52 50/57/53
f 51/58/54 49/56/52 48/55/51
f 51/58/54 4/59/4 49/56/52
f 49/60/52 52/61/55 50/57/53
f 4/62/4 52/61/55 49/60/52
f 4/62/4 6/63/6 52/61/55
f 8/8/8 12/12/12 9/9/9
f 53/64/56 12/12/12 8/8/8
f 53/64/56 10/10/10 12/12/12
f 54/65/57 55/66/58 56/67/59
f 57/68/60 55/66/58 54/65/57
f 57/68/60 58/69/61 55/66/58
f 59/70/62 60/71/63 61/72/64
f 62/73/65 60/71/63 59/70/62
f 62/73/65 58/69/61 60/71/63
f 19/19/19 63/74/66 20/20/20
f 23/75/67 63/74/66 19/19/19
f 23/75/67 64/76/68 63/74/66
f 22/22/22 65/77/69 66/78/70
f 19/24/24 65/77/69 22/22/22
f 19/24/24 21/79/71 65/77/69
f 67/80/72 68/81/73 69/82/74
f 70/83/75 68/81/73 67/80/72
f 70/83/75 71/84/76 68/81/73
f 27/28/77 72/85/78 28/29/29
f 35/86/79 72/85/78 27/28/77
f 35/86/79 73/87/80 72/85/78
f 74/88/81 75/89/82 76/90/83
f 77/91/84 75/89/82 74/88/81
f 77/91/84 24/92/25 75/89/82
f 78/93/85 79/94/86 80/95/87
f 74/96/81 79/94/86 78/93/85
f 74/96/81 76/97/83 79/94/86
f 24/25/25 81/98/88 75/99/82
f 26/27/27 81/98/88 24/25/25
f 26/27/27 69/82/74 81/98/88
f 82/100/89 68/81/73 71/84/76
f 79/101/86 68/81/73 82/100/89
f 79/101/86 76/102/83 68/81/73
f 75/99/82 68/81/73 76/102/83
f 81/98/88 68/81/73 75/99/82
f 81/98/88 69/82/74 68/81/73
f 30/31/31 27/103/90 29/32/32
f 83/104/91 27/103/90 30/31/31
f 83/104/91 84/105/92 27/103/93
f 37/40/40 85/106/94 38/43/41
f 1/1/1 85/106/94 37/40/40
f 1/1/1 86/107/95 85/106/94
f 3/3/3 86/107/95 1/1/1
f 87/108/96 16/109/16 18/110/18
f 13/13/13 16/109/16 87/108/96
f 13/13/13 88/111/97 16/109/16
f 15/15/15 88/111/97 13/13/13
f 89/112/98 90/113/99 91/114/100
f 92/115/101 90/113/99 89/112/98
f 92/115/102 93/116/103 90/113/99
f 94/117/104 93/116/103 92/115/105
f 70/83/75 95/118/106 71/84/76
f 96/119/107 95/118/106 70/83/75
f 96/119/107 97/120/108 95/118/106
f 98/121/109 97/120/108 96/119/107
f 99/122/110 95/118/106 97/120/108
f 100/123/111 95/118/106 99/122/112
f 100/123/111 71/84/76 95/118/106
f 82/100/89 71/84/76 100/123/111
f 101/124/113 38/43/41 85/106/94
f 102/125/114 38/43/41 101/124/113
f 102/125/114 39/126/42 38/43/41
f 3/127/3 39/126/42 102/125/114
f 3/127/3 2/128/2 39/126/42
f 103/129/115 8/8/8 7/7/7
f 104/130/116 8/8/8 103/129/115
f 104/130/116 53/64/56 8/8/8
f 105/131/117 53/64/56 104/130/116
f 105/131/117 10/10/118 53/64/56
f 106/132/119 107/133/120 108/134/121
f 66/78/70 107/133/120 106/132/119
f 66/78/70 109/135/122 107/133/120
f 65/77/69 109/135/122 66/78/70
f 65/77/69 21/136/123 109/135/124
f 36/39/39 110/137/125 111/138/126
f 33/36/36 110/137/125 36/39/39
f 33/36/127 84/105/92 110/137/128
f 35/139/129 84/105/92 33/36/127
f 35/139/129 27/103/77 84/105/92
f 112/140/130 32/141/131 29/142/132
f 113/143/133 32/141/131 112/140/130
f 113/143/133 98/144/134 32/141/131
f 114/145/135 98/144/134 113/143/133
f 114/145/135 97/146/136 98/144/134
f 115/147/137 50/57/53 52/61/55
f 116/148/138 50/57/53 115/147/137
f 116/148/138 48/55/51 50/57/53
f 5/5/5 48/55/51 116/148/138
f 5/5/5 51/149/54 48/55/51
f 4/4/4 51/149/54 5/5/5
f 44/150/47 117/151/139 45/152/48
f 43/153/46 117/151/139 44/150/47
f 43/153/46 118/154/140 117/151/139
f 40/45/43 118/154/140 43/153/46
f 40/45/43 47/54/50 118/154/140
f 42/47/45 47/54/50 40/45/43
f 42/47/45 41/51/44 47/54/50
f 119/155/141 109/156/142 21/157/143
f 120/158/144 109/156/142 119/155/141
f 120/158/144 107/159/120 109/156/122
f 121/160/145 107/159/120 120/158/144
f 121/160/145 108/161/121 107/159/120
f 122/162/146 108/161/121 121/160/145
f 122/162/146 123/163/147 108/161/121
f 91/114/100 106/132/119 108/134/121
f 90/113/99 106/132/119 91/114/100
f 90/113/99 66/78/70 106/132/119
f 93/116/103 66/78/70 90/113/99
f 93/116/103 22/22/22 66/78/70
f 94/117/104 22/22/22 93/116/103
f 94/117/104 23/164/148 22/22/22
f 54/65/57 16/16/16 88/165/97
f 56/67/59 16/16/16 54/65/57
f 56/67/59 17/17/17 16/16/16
f 55/66/58 17/17/17 56/67/59
f 55/66/58 124/166/149 17/17/17
f 58/69/61 124/166/149 55/66/58
f 58/69/61 125/167/150 124/166/149
f 62/73/65 125/167/150 58/69/61
f 59/70/62 13/13/13 87/108/96
f 61/72/64 13/13/13 59/70/62
f 61/72/64 14/14/14 13/13/13
f 60/71/63 14/14/14 61/72/64
f 60/71/63 126/168/151 14/14/14
f 58/69/61 126/168/151 60/71/63
f 58/69/61 127/169/152 126/168/151
f 57/68/60 127/169/152 58/69/61
f 128/170/153 97/146/136 114/145/135
f 129/171/154 97/146/136 128/170/153
f 129/171/154 99/172/155 97/146/136
f 130/173/156 99/172/112 129/171/154
f 130/173/156 100/174/111 99/172/112
f 80/95/87 100/174/111 130/173/156
f 80/95/87 82/175/89 100/174/111
f 79/94/86 82/175/89 80/95/87
f 131/176/157 10/10/118 105/131/117
f 132/177/158 10/10/118 131/176/157
f 132/177/159 11/11/160 10/10/161
f 133/178/162 11/11/163 132/177/158
f 133/178/162 12/12/12 11/11/163
f 134/179/164 12/12/12 133/178/162
f 134/179/164 9/9/9 12/12/12
f 135/180/165 9/9/9 134/179/164
f 135/180/165 7/7/7 9/9/9
f 23/181/67 136/182/166 137/183/167
f 94/184/168 136/182/166 23/181/67
f 94/184/168 138/185/169 136/182/166
f 92/186/170 138/185/169 94/184/168
f 92/186/170 139/187/171 138/185/169
f 89/188/98 139/187/171 92/186/172
f 89/188/98 123/163/147 139/187/171
f 91/189/100 123/163/147 89/188/98
f 91/189/100 108/161/121 123/163/147
f 140/190/173 24/92/25 77/91/84
f 141/191/174 24/92/25 140/190/173
f 141/191/174 25/192/26 24/92/25
f 142/193/175 25/192/176 141/191/174
f 142/193/175 111/194/177 25/192/176
f 143/195/178 111/194/177 142/193/175
f 143/195/178 36/196/179 111/194/177
f 144/197/180 36/196/179 143/195/178
f 144/197/180 34/198/181 36/196/179
f 145/199/182 34/198/181 144/197/180
f 145/199/182 35/200/183 34/198/181
f 98/121/109 31/33/33 32/35/35
f 96/119/107 31/33/33 98/121/109
f 96/119/107 30/31/31 31/33/33
f 70/83/75 30/31/31 96/119/107
f 70/83/75 83/104/91 30/31/31
f 67/80/72 83/104/91 70/83/75
f 67/80/72 84/105/92 83/104/91
f 69/82/74 84/105/92 67/80/72
f 69/82/74 110/137/128 84/105/92
f 26/27/27 110/137/184 69/82/74
f 26/27/27 111/138/185 110/137/186
f 25/26/187 111/138/185 26/27/27
